<svg width="18" height="19" viewBox="0 0 18 19" version="1.1" xmlns="http://www.w3.org/2000/svg" xmlns:xlink="http://www.w3.org/1999/xlink">
<title>Shape</title>
<desc>Created using Figma</desc>
<g id="Canvas" transform="translate(-239 -633)">
<g id="Shape">
<use xlink:href="#path0_fill" transform="translate(239.02 633.006)" fill="#767676"/>
</g>
</g>
<defs>
<path id="path0_fill" fill-rule="evenodd" d="M 16.684 11.8131C 16.9985 12.4633 17.2502 13.0085 17.397 13.4698C 18.4665 16.408 16.2645 18.9895 13.5991 18.9874C 13.5781 18.9874 13.4942 18.9874 13.3894 18.9664L 13.0958 18.9664C 11.7117 18.7986 10.2835 17.9158 8.8365 16.343C 7.38948 17.9179 5.96133 18.7986 4.57722 18.9664L 4.28363 18.9664C 4.17877 18.9874 4.09489 18.9874 4.07391 18.9874C 1.40846 18.9874 -0.793518 16.408 0.276016 13.4698C 0.296982 13.407 0.380875 13.1973 0.548645 12.7988L 0.989044 11.8341L 0.989044 11.7922C 2.478 8.62341 3.86421 5.7713 5.18539 3.21069L 5.24831 3.0849C 6.08716 1.34216 6.90714 0 8.8365 0C 10.7889 0 11.46 1.15552 12.4037 3.0849L 12.4876 3.21069C 13.8088 5.7713 15.195 8.62341 16.684 11.7922L 16.684 11.8131ZM 16.4323 15.3594C 16.2855 16.345 15.6144 17.1629 14.6917 17.5614C 12.9091 18.3373 11.1454 17.1 9.6355 15.4223C 12.1332 12.2955 12.5946 9.86279 11.5229 8.28784C 10.8938 7.38611 9.99202 6.94568 8.83649 6.94568C 6.50868 6.94568 5.22733 8.91699 5.73064 11.205C 6.02425 12.4423 6.80019 13.8495 8.03749 15.4223C 7.26155 16.2821 6.52756 16.8903 5.87744 17.2678C 5.37413 17.5404 4.89178 17.7082 4.43042 17.7501C 2.31232 18.0647 0.653488 16.0095 1.40846 13.8893C 1.51332 13.6167 1.72302 13.1133 2.07954 12.3374L 2.10051 12.2955C 3.25394 9.77686 4.6611 6.92474 6.27589 3.75598L 6.31784 3.65112L 6.77921 2.77032L 6.81732 2.70074C 7.14697 2.09875 7.30312 1.8136 7.84874 1.47009C 8.12137 1.30231 8.45691 1.21844 8.8344 1.21844C 9.58937 1.21844 10.1766 1.65881 10.4282 2.01538C 10.5276 2.16437 10.64 2.3526 10.7758 2.58002L 10.7766 2.58136C 10.8125 2.6416 10.8501 2.70459 10.8896 2.77032L 11.33 3.63013L 11.3929 3.75598C 13.0077 6.92474 14.4149 9.77686 15.5683 12.2955L 15.5892 12.3165L 16.0087 13.2811L 16.2603 13.8893C 16.4533 14.3737 16.4952 14.8561 16.4323 15.3594ZM 8.8365 14.4576C 7.76697 13.1154 7.13782 11.9389 6.92812 10.9323C 6.7184 10.1144 6.80228 9.46429 7.1588 8.98199C 7.53627 8.41577 8.10251 8.14313 8.8365 8.14313C 9.5705 8.14313 10.1367 8.41577 10.5142 8.98199C 10.8707 9.46429 10.9546 10.1144 10.7449 10.9323C 10.5142 11.9599 9.88506 13.1343 8.8365 14.4576Z"/>
</defs>
</svg>
